<mxfile host="65bd71144e">
    <diagram id="WYq8GOCfq9GIUAZUDXxE" name="Page-1">
        <mxGraphModel dx="2988" dy="3817" grid="1" gridSize="10" guides="1" tooltips="1" connect="1" arrows="1" fold="1" page="1" pageScale="1" pageWidth="827" pageHeight="1169" math="0" shadow="0">
            <root>
                <mxCell id="0"/>
                <mxCell id="1" parent="0"/>
                <mxCell id="7" value="" style="edgeStyle=none;html=1;fontSize=14;" parent="1" source="4" target="6" edge="1">
                    <mxGeometry relative="1" as="geometry"/>
                </mxCell>
                <mxCell id="4" value="&lt;font style=&quot;font-size: 14px&quot;&gt;Preprocess&lt;/font&gt;" style="rounded=1;whiteSpace=wrap;html=1;absoluteArcSize=1;arcSize=14;strokeWidth=2;" parent="1" vertex="1">
                    <mxGeometry x="525" y="-567" width="120" height="40" as="geometry"/>
                </mxCell>
                <mxCell id="21" value="" style="edgeStyle=none;html=1;fontSize=14;" parent="1" edge="1">
                    <mxGeometry relative="1" as="geometry">
                        <mxPoint x="585.0000000000002" y="-348.0000000000002" as="sourcePoint"/>
                        <mxPoint x="585.0000000000002" y="176" as="targetPoint"/>
                    </mxGeometry>
                </mxCell>
                <mxCell id="6" value="&lt;font style=&quot;font-size: 14px&quot;&gt;Calculate Embedding&lt;/font&gt;" style="rounded=1;whiteSpace=wrap;html=1;absoluteArcSize=1;arcSize=14;strokeWidth=2;" parent="1" vertex="1">
                    <mxGeometry x="525" y="-302" width="120" height="50" as="geometry"/>
                </mxCell>
                <mxCell id="145" value="" style="edgeStyle=none;html=1;fontSize=13;fontColor=#CC0000;" parent="1" source="8" edge="1">
                    <mxGeometry relative="1" as="geometry">
                        <mxPoint x="968.1315224393388" y="699.1202490873952" as="targetPoint"/>
                    </mxGeometry>
                </mxCell>
                <mxCell id="155" style="edgeStyle=none;html=1;entryX=0.5;entryY=0;entryDx=0;entryDy=0;entryPerimeter=0;fontSize=14;fontColor=#CC0000;" parent="1" source="8" target="10" edge="1">
                    <mxGeometry relative="1" as="geometry"/>
                </mxCell>
                <mxCell id="8" value="&lt;span style=&quot;font-size: 14px&quot;&gt;Sentiment Analysis&lt;/span&gt;" style="rounded=1;whiteSpace=wrap;html=1;absoluteArcSize=1;arcSize=14;strokeWidth=2;" parent="1" vertex="1">
                    <mxGeometry x="525" y="675" width="120" height="50" as="geometry"/>
                </mxCell>
                <mxCell id="10" value="" style="strokeWidth=2;html=1;shape=mxgraph.flowchart.database;whiteSpace=wrap;fontSize=14;" parent="1" vertex="1">
                    <mxGeometry x="555" y="856" width="60" height="40" as="geometry"/>
                </mxCell>
                <mxCell id="12" value="DataFrame Not ESG" style="swimlane;fontStyle=0;childLayout=stackLayout;horizontal=1;startSize=30;horizontalStack=0;resizeParent=1;resizeParentMax=0;resizeLast=0;collapsible=1;marginBottom=0;fontSize=14;" parent="1" vertex="1">
                    <mxGeometry x="165" y="437" width="170" height="150" as="geometry"/>
                </mxCell>
                <mxCell id="14" value="Tweet" style="text;strokeColor=none;fillColor=none;align=left;verticalAlign=middle;spacingLeft=4;spacingRight=4;overflow=hidden;points=[[0,0.5],[1,0.5]];portConstraint=eastwest;rotatable=0;fontSize=14;" parent="12" vertex="1">
                    <mxGeometry y="30" width="170" height="30" as="geometry"/>
                </mxCell>
                <mxCell id="18" value="Date" style="text;strokeColor=none;fillColor=none;align=left;verticalAlign=middle;spacingLeft=4;spacingRight=4;overflow=hidden;points=[[0,0.5],[1,0.5]];portConstraint=eastwest;rotatable=0;fontSize=14;" parent="12" vertex="1">
                    <mxGeometry y="60" width="170" height="30" as="geometry"/>
                </mxCell>
                <mxCell id="17" value="Language" style="text;strokeColor=none;fillColor=none;align=left;verticalAlign=middle;spacingLeft=4;spacingRight=4;overflow=hidden;points=[[0,0.5],[1,0.5]];portConstraint=eastwest;rotatable=0;fontSize=14;" parent="12" vertex="1">
                    <mxGeometry y="90" width="170" height="30" as="geometry"/>
                </mxCell>
                <mxCell id="15" value="Embedding" style="text;strokeColor=none;fillColor=none;align=left;verticalAlign=middle;spacingLeft=4;spacingRight=4;overflow=hidden;points=[[0,0.5],[1,0.5]];portConstraint=eastwest;rotatable=0;fontSize=14;" parent="12" vertex="1">
                    <mxGeometry y="120" width="170" height="30" as="geometry"/>
                </mxCell>
                <mxCell id="22" value="" style="edgeStyle=none;html=1;fontSize=14;" parent="1" source="20" target="8" edge="1">
                    <mxGeometry relative="1" as="geometry">
                        <Array as="points">
                            <mxPoint x="585" y="467"/>
                        </Array>
                    </mxGeometry>
                </mxCell>
                <mxCell id="121" value="" style="edgeStyle=none;html=1;fontSize=13;fontColor=#CC0000;" parent="1" source="20" target="120" edge="1">
                    <mxGeometry relative="1" as="geometry"/>
                </mxCell>
                <mxCell id="20" value="&lt;font style=&quot;font-size: 14px&quot;&gt;E, S, G or NOT&lt;/font&gt;" style="rounded=1;whiteSpace=wrap;html=1;absoluteArcSize=1;arcSize=14;strokeWidth=2;" parent="1" vertex="1">
                    <mxGeometry x="525" y="183" width="120" height="50" as="geometry"/>
                </mxCell>
                <mxCell id="131" value="" style="edgeStyle=none;html=1;fontSize=13;fontColor=#CC0000;" parent="1" source="23" target="130" edge="1">
                    <mxGeometry relative="1" as="geometry"/>
                </mxCell>
                <mxCell id="23" value="Update_DB" style="strokeWidth=2;html=1;shape=mxgraph.flowchart.start_2;whiteSpace=wrap;fontSize=14;" parent="1" vertex="1">
                    <mxGeometry x="535" y="-1073" width="100" height="100" as="geometry"/>
                </mxCell>
                <mxCell id="81" value="- remove URLs&lt;br&gt;- remove # sign" style="text;html=1;align=center;verticalAlign=middle;resizable=0;points=[];autosize=1;strokeColor=none;fillColor=none;fontSize=14;" parent="1" vertex="1">
                    <mxGeometry x="645" y="-567" width="110" height="40" as="geometry"/>
                </mxCell>
                <mxCell id="114" value="" style="edgeStyle=none;html=1;exitX=0.5;exitY=0;exitDx=0;exitDy=0;" parent="1" source="122" target="113" edge="1">
                    <mxGeometry relative="1" as="geometry">
                        <mxPoint x="1019" y="-369.5" as="sourcePoint"/>
                    </mxGeometry>
                </mxCell>
                <mxCell id="116" value="" style="edgeStyle=none;html=1;" parent="1" edge="1">
                    <mxGeometry relative="1" as="geometry">
                        <mxPoint x="1085" y="-279.02" as="sourcePoint"/>
                        <mxPoint x="1169.999999999979" y="-279.02" as="targetPoint"/>
                    </mxGeometry>
                </mxCell>
                <mxCell id="118" value="" style="edgeStyle=none;html=1;entryX=0.5;entryY=0;entryDx=0;entryDy=0;" parent="1" target="117" edge="1">
                    <mxGeometry relative="1" as="geometry">
                        <mxPoint x="1019" y="-287" as="sourcePoint"/>
                        <mxPoint x="1019.0000000000002" y="-195.74999999999977" as="targetPoint"/>
                    </mxGeometry>
                </mxCell>
                <mxCell id="113" value="&lt;font style=&quot;font-size: 13px&quot; color=&quot;#cc0000&quot;&gt;&lt;u&gt;&lt;b&gt;SBERT&lt;/b&gt;&lt;/u&gt;&lt;/font&gt;" style="ellipse;whiteSpace=wrap;html=1;dashed=0;" parent="1" vertex="1">
                    <mxGeometry x="959" y="-470.75" width="120" height="60" as="geometry"/>
                </mxCell>
                <mxCell id="115" value="&lt;font style=&quot;font-size: 13px&quot;&gt;ESG-BERT&lt;/font&gt;" style="ellipse;whiteSpace=wrap;html=1;dashed=0;" parent="1" vertex="1">
                    <mxGeometry x="1165" y="-308.25" width="120" height="60" as="geometry"/>
                </mxCell>
                <mxCell id="117" value="&lt;font style=&quot;font-size: 13px&quot;&gt;xlm-roBERTa-base&lt;/font&gt;" style="ellipse;whiteSpace=wrap;html=1;dashed=0;" parent="1" vertex="1">
                    <mxGeometry x="959" y="-146.75" width="120" height="60" as="geometry"/>
                </mxCell>
                <mxCell id="124" value="" style="edgeStyle=none;html=1;fontSize=14;fontColor=#CC0000;" parent="1" source="120" target="123" edge="1">
                    <mxGeometry relative="1" as="geometry"/>
                </mxCell>
                <mxCell id="126" value="" style="edgeStyle=none;html=1;fontSize=13;fontColor=#CC0000;" parent="1" source="120" target="125" edge="1">
                    <mxGeometry relative="1" as="geometry"/>
                </mxCell>
                <mxCell id="128" value="" style="edgeStyle=none;html=1;fontSize=13;fontColor=#CC0000;" parent="1" source="120" target="127" edge="1">
                    <mxGeometry relative="1" as="geometry"/>
                </mxCell>
                <mxCell id="120" value="&lt;b&gt;&lt;font style=&quot;font-size: 14px&quot;&gt;ESG_Filter&lt;/font&gt;&lt;/b&gt;" style="rhombus;whiteSpace=wrap;html=1;rounded=1;arcSize=14;strokeWidth=2;" parent="1" vertex="1">
                    <mxGeometry x="955" y="158.5" width="130" height="99" as="geometry"/>
                </mxCell>
                <mxCell id="122" value="&lt;b&gt;&lt;font style=&quot;font-size: 14px&quot;&gt;Embedder&lt;/font&gt;&lt;/b&gt;" style="rhombus;whiteSpace=wrap;html=1;rounded=1;arcSize=14;strokeWidth=2;" parent="1" vertex="1">
                    <mxGeometry x="949" y="-318.25" width="140" height="80" as="geometry"/>
                </mxCell>
                <mxCell id="123" value="&lt;font style=&quot;font-size: 13px&quot; color=&quot;#cc0000&quot;&gt;&lt;b&gt;&lt;u&gt;FinBERT&lt;/u&gt;&lt;/b&gt;&lt;/font&gt;" style="ellipse;whiteSpace=wrap;html=1;rounded=1;arcSize=14;strokeWidth=2;" parent="1" vertex="1">
                    <mxGeometry x="960" y="-1" width="120" height="60" as="geometry"/>
                </mxCell>
                <mxCell id="125" value="&lt;font style=&quot;font-size: 13px&quot;&gt;Gram-Schmidt&lt;br&gt;model&lt;/font&gt;" style="ellipse;whiteSpace=wrap;html=1;rounded=1;arcSize=14;strokeWidth=2;" parent="1" vertex="1">
                    <mxGeometry x="1170" y="178" width="120" height="60" as="geometry"/>
                </mxCell>
                <mxCell id="127" value="&lt;font style=&quot;font-size: 13px&quot;&gt;Mean model&lt;/font&gt;" style="ellipse;whiteSpace=wrap;html=1;rounded=1;arcSize=14;strokeWidth=2;" parent="1" vertex="1">
                    <mxGeometry x="960" y="357" width="120" height="60" as="geometry"/>
                </mxCell>
                <mxCell id="129" value="" style="endArrow=classic;html=1;fontSize=13;fontColor=#CC0000;exitX=1;exitY=0.5;exitDx=0;exitDy=0;entryX=0;entryY=0.5;entryDx=0;entryDy=0;" parent="1" source="6" target="122" edge="1">
                    <mxGeometry width="50" height="50" relative="1" as="geometry">
                        <mxPoint x="825" y="-72" as="sourcePoint"/>
                        <mxPoint x="875" y="-122" as="targetPoint"/>
                    </mxGeometry>
                </mxCell>
                <mxCell id="134" value="" style="edgeStyle=none;html=1;fontSize=13;fontColor=#CC0000;" parent="1" source="130" edge="1">
                    <mxGeometry relative="1" as="geometry">
                        <mxPoint x="959.2002992116923" y="-691.1357960757236" as="targetPoint"/>
                    </mxGeometry>
                </mxCell>
                <mxCell id="130" value="Scrap new tweets" style="rounded=1;whiteSpace=wrap;html=1;fontSize=14;strokeWidth=2;" parent="1" vertex="1">
                    <mxGeometry x="525" y="-722" width="120" height="60" as="geometry"/>
                </mxCell>
                <mxCell id="132" value="" style="endArrow=classic;html=1;fontSize=13;fontColor=#CC0000;exitX=0.5;exitY=1;exitDx=0;exitDy=0;entryX=0.5;entryY=0;entryDx=0;entryDy=0;" parent="1" source="130" target="4" edge="1">
                    <mxGeometry width="50" height="50" relative="1" as="geometry">
                        <mxPoint x="825" y="-412" as="sourcePoint"/>
                        <mxPoint x="515" y="-572" as="targetPoint"/>
                    </mxGeometry>
                </mxCell>
                <mxCell id="138" value="" style="edgeStyle=none;html=1;fontSize=13;fontColor=#CC0000;" parent="1" target="137" edge="1">
                    <mxGeometry relative="1" as="geometry">
                        <mxPoint x="1076.432969539013" y="-691.3844274311778" as="sourcePoint"/>
                    </mxGeometry>
                </mxCell>
                <mxCell id="140" value="" style="edgeStyle=none;html=1;fontSize=13;fontColor=#CC0000;" parent="1" source="133" target="139" edge="1">
                    <mxGeometry relative="1" as="geometry"/>
                </mxCell>
                <mxCell id="133" value="&lt;b&gt;Scraper&lt;/b&gt;" style="rhombus;whiteSpace=wrap;html=1;fontSize=14;rounded=1;strokeWidth=2;" parent="1" vertex="1">
                    <mxGeometry x="959" y="-732" width="118" height="80" as="geometry"/>
                </mxCell>
                <mxCell id="137" value="&lt;font style=&quot;font-size: 13px&quot;&gt;Week search&lt;/font&gt;" style="ellipse;whiteSpace=wrap;html=1;fontSize=14;rounded=1;strokeWidth=2;" parent="1" vertex="1">
                    <mxGeometry x="1170" y="-722" width="120" height="60" as="geometry"/>
                </mxCell>
                <mxCell id="139" value="&lt;font style=&quot;font-size: 13px&quot;&gt;Full archive search&lt;/font&gt;" style="ellipse;whiteSpace=wrap;html=1;fontSize=14;rounded=1;strokeWidth=2;" parent="1" vertex="1">
                    <mxGeometry x="958" y="-893" width="120" height="60" as="geometry"/>
                </mxCell>
                <mxCell id="147" value="" style="edgeStyle=none;html=1;fontSize=13;fontColor=#CC0000;" parent="1" source="144" target="146" edge="1">
                    <mxGeometry relative="1" as="geometry"/>
                </mxCell>
                <mxCell id="149" value="" style="edgeStyle=none;html=1;fontSize=13;fontColor=#CC0000;" parent="1" target="148" edge="1">
                    <mxGeometry relative="1" as="geometry">
                        <mxPoint x="1071.7025748885949" y="697.8137827552869" as="sourcePoint"/>
                    </mxGeometry>
                </mxCell>
                <mxCell id="144" value="&lt;b&gt;&lt;font style=&quot;font-size: 14px&quot;&gt;Sent_model&lt;/font&gt;&lt;/b&gt;" style="rhombus;whiteSpace=wrap;html=1;rounded=1;arcSize=14;strokeWidth=2;" parent="1" vertex="1">
                    <mxGeometry x="968" y="652" width="105" height="96" as="geometry"/>
                </mxCell>
                <mxCell id="146" value="&lt;font&gt;&lt;font style=&quot;font-size: 14px&quot; color=&quot;#cc0000&quot;&gt;&lt;b&gt;&lt;u&gt;BERT-Base_uncased&lt;/u&gt;&lt;/b&gt;&lt;/font&gt;&lt;br&gt;&lt;/font&gt;" style="ellipse;whiteSpace=wrap;html=1;rounded=1;arcSize=14;strokeWidth=2;" parent="1" vertex="1">
                    <mxGeometry x="960" y="531" width="120" height="60" as="geometry"/>
                </mxCell>
                <mxCell id="148" value="&lt;span style=&quot;font-size: 13px&quot;&gt;RoBERTa_Twitter&lt;/span&gt;" style="ellipse;whiteSpace=wrap;html=1;rounded=1;arcSize=14;strokeWidth=2;" parent="1" vertex="1">
                    <mxGeometry x="1165" y="665" width="120" height="60" as="geometry"/>
                </mxCell>
                <mxCell id="156" value="" style="strokeWidth=2;html=1;shape=mxgraph.flowchart.database;whiteSpace=wrap;fontSize=14;" parent="1" vertex="1">
                    <mxGeometry x="215" y="392" width="60" height="40" as="geometry"/>
                </mxCell>
                <mxCell id="158" value="DataFrame ESG" style="swimlane;fontStyle=0;childLayout=stackLayout;horizontal=1;startSize=30;horizontalStack=0;resizeParent=1;resizeParentMax=0;resizeLast=0;collapsible=1;marginBottom=0;fontSize=14;" parent="1" vertex="1">
                    <mxGeometry x="525" y="906" width="140" height="210" as="geometry"/>
                </mxCell>
                <mxCell id="159" value="Tweet" style="text;strokeColor=none;fillColor=none;align=left;verticalAlign=middle;spacingLeft=4;spacingRight=4;overflow=hidden;points=[[0,0.5],[1,0.5]];portConstraint=eastwest;rotatable=0;fontSize=14;" parent="158" vertex="1">
                    <mxGeometry y="30" width="140" height="30" as="geometry"/>
                </mxCell>
                <mxCell id="160" value="Date" style="text;strokeColor=none;fillColor=none;align=left;verticalAlign=middle;spacingLeft=4;spacingRight=4;overflow=hidden;points=[[0,0.5],[1,0.5]];portConstraint=eastwest;rotatable=0;fontSize=14;" parent="158" vertex="1">
                    <mxGeometry y="60" width="140" height="30" as="geometry"/>
                </mxCell>
                <mxCell id="161" value="Language" style="text;strokeColor=none;fillColor=none;align=left;verticalAlign=middle;spacingLeft=4;spacingRight=4;overflow=hidden;points=[[0,0.5],[1,0.5]];portConstraint=eastwest;rotatable=0;fontSize=14;" parent="158" vertex="1">
                    <mxGeometry y="90" width="140" height="30" as="geometry"/>
                </mxCell>
                <mxCell id="163" value="Embedding" style="text;strokeColor=none;fillColor=none;align=left;verticalAlign=middle;spacingLeft=4;spacingRight=4;overflow=hidden;points=[[0,0.5],[1,0.5]];portConstraint=eastwest;rotatable=0;fontSize=14;" parent="158" vertex="1">
                    <mxGeometry y="120" width="140" height="30" as="geometry"/>
                </mxCell>
                <mxCell id="162" value="ESG_Class" style="text;strokeColor=none;fillColor=none;align=left;verticalAlign=middle;spacingLeft=4;spacingRight=4;overflow=hidden;points=[[0,0.5],[1,0.5]];portConstraint=eastwest;rotatable=0;fontSize=14;" parent="158" vertex="1">
                    <mxGeometry y="150" width="140" height="30" as="geometry"/>
                </mxCell>
                <mxCell id="164" value="Sentiment" style="text;strokeColor=none;fillColor=none;align=left;verticalAlign=middle;spacingLeft=4;spacingRight=4;overflow=hidden;points=[[0,0.5],[1,0.5]];portConstraint=eastwest;rotatable=0;fontSize=14;" parent="158" vertex="1">
                    <mxGeometry y="180" width="140" height="30" as="geometry"/>
                </mxCell>
                <mxCell id="165" value="" style="endArrow=classic;html=1;fontSize=14;fontColor=#CC0000;" parent="1" edge="1">
                    <mxGeometry width="50" height="50" relative="1" as="geometry">
                        <mxPoint x="586" y="416" as="sourcePoint"/>
                        <mxPoint x="285" y="416" as="targetPoint"/>
                    </mxGeometry>
                </mxCell>
                <mxCell id="168" value="50 requests/month&lt;br&gt;100 tweets/request" style="text;html=1;align=center;verticalAlign=middle;resizable=0;points=[];autosize=1;strokeColor=none;fillColor=none;fontSize=14;fontColor=#000000;" parent="1" vertex="1">
                    <mxGeometry x="1085" y="-883" width="130" height="40" as="geometry"/>
                </mxCell>
                <mxCell id="169" value="Unlimited requests&lt;br&gt;500 tweets/request&lt;br&gt;2M tweets/month" style="text;html=1;align=center;verticalAlign=middle;resizable=0;points=[];autosize=1;strokeColor=none;fillColor=none;fontSize=14;fontColor=#000000;" parent="1" vertex="1">
                    <mxGeometry x="1295" y="-722" width="130" height="60" as="geometry"/>
                </mxCell>
                <mxCell id="170" value="+ MultiLing&lt;br&gt;+ Excellent Benchmark&lt;br&gt;+ Efficient running time&lt;br&gt;- Not Finetuned for esg tasks" style="text;html=1;align=left;verticalAlign=middle;resizable=0;points=[];autosize=1;strokeColor=none;fillColor=none;fontSize=14;fontColor=#000000;" parent="1" vertex="1">
                    <mxGeometry x="1090" y="-475.75" width="190" height="70" as="geometry"/>
                </mxCell>
                <mxCell id="171" value="+ Finetuned for esg tasks&lt;br&gt;- English only&lt;br&gt;- Very slow" style="text;html=1;align=left;verticalAlign=middle;resizable=0;points=[];autosize=1;strokeColor=none;fillColor=none;fontSize=14;fontColor=#000000;" parent="1" vertex="1">
                    <mxGeometry x="1295" y="-307" width="170" height="60" as="geometry"/>
                </mxCell>
                <mxCell id="172" value="+ MultiLing&lt;br&gt;+ Good performance&lt;br&gt;- Largest model, very slow&lt;br&gt;- Not finetuned for esg tasks" style="text;html=1;align=left;verticalAlign=middle;resizable=0;points=[];autosize=1;strokeColor=none;fillColor=none;fontSize=14;fontColor=#000000;" parent="1" vertex="1">
                    <mxGeometry x="1085" y="-146.75" width="190" height="70" as="geometry"/>
                </mxCell>
                <mxCell id="173" value="+ MultiLing&lt;br&gt;+ 5-scale classification&lt;br&gt;+ Good running time&lt;br&gt;- Not concieved for twitter&amp;nbsp;" style="text;html=1;align=left;verticalAlign=middle;resizable=0;points=[];autosize=1;strokeColor=none;fillColor=none;fontSize=14;fontColor=#000000;" parent="1" vertex="1">
                    <mxGeometry x="1095" y="526" width="180" height="70" as="geometry"/>
                </mxCell>
                <mxCell id="174" value="+ MultiLing&lt;br&gt;+Concieved for twitter&lt;br&gt;- 3 scale classification&lt;br&gt;- Moderate running time" style="text;html=1;align=left;verticalAlign=middle;resizable=0;points=[];autosize=1;strokeColor=none;fillColor=none;fontSize=14;fontColor=#000000;" parent="1" vertex="1">
                    <mxGeometry x="1285" y="670" width="160" height="70" as="geometry"/>
                </mxCell>
                <mxCell id="175" value="+ Supervised model&lt;br&gt;- English only&lt;br&gt;- Slower performance" style="text;html=1;align=left;verticalAlign=middle;resizable=0;points=[];autosize=1;strokeColor=none;fillColor=none;fontSize=14;fontColor=#000000;" parent="1" vertex="1">
                    <mxGeometry x="1095" y="-1" width="150" height="60" as="geometry"/>
                </mxCell>
                <mxCell id="176" value="+ Efficient running time&lt;br&gt;- Need to define threshhold&lt;br&gt;- Semi-Supervised&lt;br&gt;- Language depends on dictionnary&lt;br&gt;- Precision depends on dictionnary" style="text;html=1;align=left;verticalAlign=middle;resizable=0;points=[];autosize=1;strokeColor=none;fillColor=none;fontSize=14;fontColor=#000000;" parent="1" vertex="1">
                    <mxGeometry x="1295" y="167.5" width="230" height="90" as="geometry"/>
                </mxCell>
                <mxCell id="178" value="+ Efficient running time&lt;br&gt;- Need to define threshhold&lt;br&gt;- Semi-Supervised&lt;br&gt;- Language depends on dictionnary&lt;br&gt;- Precision depends on dictionnary" style="text;html=1;align=left;verticalAlign=middle;resizable=0;points=[];autosize=1;strokeColor=none;fillColor=none;fontSize=14;fontColor=#000000;" parent="1" vertex="1">
                    <mxGeometry x="1089" y="347" width="230" height="90" as="geometry"/>
                </mxCell>
                <mxCell id="180" style="edgeStyle=none;html=1;entryX=0;entryY=0.5;entryDx=0;entryDy=0;entryPerimeter=0;" parent="1" source="179" target="23" edge="1">
                    <mxGeometry relative="1" as="geometry"/>
                </mxCell>
                <mxCell id="179" value="&lt;span&gt;Company&amp;nbsp;&lt;/span&gt;&lt;br&gt;&lt;span&gt;Language&lt;/span&gt;" style="triangle;whiteSpace=wrap;html=1;dashed=0;direction=east;align=left;" parent="1" vertex="1">
                    <mxGeometry x="225" y="-1078" width="100" height="110" as="geometry"/>
                </mxCell>
                <mxCell id="181" value="&lt;font style=&quot;font-size: 50px&quot;&gt;Update_DB&lt;/font&gt;" style="text;html=1;align=center;verticalAlign=middle;resizable=0;points=[];autosize=1;strokeColor=none;fillColor=none;fontStyle=1" vertex="1" parent="1">
                    <mxGeometry x="669" y="-1130" width="280" height="30" as="geometry"/>
                </mxCell>
            </root>
        </mxGraphModel>
    </diagram>
</mxfile>